<?xml version="1.0" encoding="UTF-8"?>
<svg width="16px" height="16px" viewBox="0 0 16 16" version="1.1" xmlns="http://www.w3.org/2000/svg" xmlns:xlink="http://www.w3.org/1999/xlink">
    <!-- Generator: Sketch 49.1 (51147) - http://www.bohemiancoding.com/sketch -->
    <title>safari-pinned-tab</title>
    <desc>Created with Sketch.</desc>
    <defs></defs>
    <g id="Page-1" stroke="none" stroke-width="1" fill="none" fill-rule="evenodd">
        <g id="safari-pinned-tab" fill="#000000" fill-rule="nonzero">
            <g id="Group" transform="translate(7.975685, 7.960000) scale(-1, 1) rotate(-180.000000) translate(-7.975685, -7.960000) ">
                <path d="M6.81501481,14.7906996 L5.67002958,13.6692414 L4.08587194,13.7006109 C2.76051233,13.724138 2.5017143,13.7162956 2.46250247,13.6143449 C2.43897538,13.551606 2.41544829,12.8301084 2.39976356,11.9988178 L2.38407883,10.4930838 L1.19203941,9.3402562 C0.509753697,8.68933994 0,8.13253206 0,8.05410841 C0,7.92863058 1.13714286,6.68953698 1.98411824,5.88961579 L2.28212809,5.61513303 L2.26644336,4.06234485 C2.25075863,3.20752711 2.26644336,2.48602957 2.29781282,2.45466011 C2.32918228,2.42329065 3.04283745,2.38407883 3.88197046,2.3683941 L5.39554682,2.34486701 L6.14057146,1.58415764 C6.54837442,1.16851232 7.05812811,0.63523153 7.27771432,0.415645322 C7.49730053,0.18821675 7.73257147,0 7.81883748,0 C7.89726112,0.00784236457 8.48543846,0.517596062 9.13635472,1.13714286 L10.304867,2.26644336 L11.8419705,2.24291627 C12.6811035,2.22723154 13.4104434,2.22723154 13.4496552,2.24291627 C13.4967094,2.26644336 13.5280789,2.87030543 13.5202365,3.850601 L13.5202365,5.42691628 L14.069202,5.96019707 C14.3750543,6.25036456 14.9240198,6.77580299 15.2847685,7.11302466 L15.9513695,7.74041383 L15.7553104,7.93647294 C15.6533597,8.04626605 15.143606,8.57170447 14.6181676,9.10498527 L13.6692414,10.0774385 L13.7084533,11.7870739 C13.724138,12.7203153 13.7084533,13.4967094 13.6692414,13.5045518 C13.46534,13.5359212 12.9869557,13.551606 11.7086503,13.5672907 L10.28134,13.5751331 L9.15988182,14.7514878 C8.54817738,15.3945617 8.02273895,15.9200001 7.99921186,15.9200001 C7.97568477,15.9200001 7.44240398,15.4102464 6.81501481,14.7906996 Z M9.02656162,14.4926897 L9.95196064,13.5280789 L9.70100497,13.46534 C9.25399019,13.3555469 8.83050251,13.1516454 8.42269955,12.8536355 L8.01489659,12.5556257 L7.83452221,12.7516848 C7.57572417,13.0261676 6.97970447,13.3947587 6.54837442,13.5437636 L6.17194092,13.6692414 L7.09733994,14.563271 C7.614936,15.0494976 8.04626605,15.4494582 8.06979314,15.4494582 C8.09332024,15.4494582 8.52465029,15.0181282 9.02656162,14.4926897 Z M5.39554682,13.3006503 C5.40338919,13.2849656 5.34849264,13.1516454 5.26222663,13.0104828 C5.05832515,12.6497341 4.86226603,12.0380296 4.82305421,11.6459114 C4.80736948,11.4733794 4.79168475,11.3086897 4.79168475,11.2851626 C4.78384239,11.2537932 4.61131037,11.2302661 4.40740889,11.2302661 C3.99960593,11.2145813 3.01931036,10.9479409 2.94088671,10.8224631 C2.78403942,10.5715074 2.7448276,10.8459902 2.75266996,12.0380296 C2.76051233,13.1281183 2.78403942,13.3241774 2.88599016,13.3477045 C3.03499509,13.379074 5.356335,13.3320198 5.39554682,13.3006503 Z M6.78364535,13.0496946 C7.00323156,12.9477439 7.33261087,12.7360001 7.51298526,12.5869951 L7.83452221,12.30467 L7.68551728,12.0145025 C7.33261087,11.3557439 7.60709363,10.8303055 8.21879807,10.9949951 C8.6109163,11.0969459 8.68149758,11.379271 8.46191137,11.9125518 C8.35996063,12.1556651 8.32074881,12.3517242 8.367803,12.3830937 C8.40701482,12.4066207 8.56386211,12.5242562 8.71286704,12.6418917 C9.01087689,12.8693203 9.63826606,13.1359607 10.0225419,13.1986996 C10.2264434,13.230069 10.304867,13.1986996 10.4303449,13.0418523 C10.7361971,12.6575764 10.9400986,11.8811823 10.9087291,11.2773203 C10.9008868,11.1988966 10.7910936,11.1126306 10.626404,11.057734 C10.4773991,11.0106799 10.2421281,10.8616749 10.1088079,10.7361971 C9.89706409,10.540138 9.87353699,10.4695567 9.91274882,10.2578129 C9.96764537,9.96764537 10.1558621,9.81079808 10.453872,9.80295571 C10.7205124,9.80295571 10.9479409,10.0225419 11.1361577,10.4695567 L11.2851626,10.8067784 L11.6459114,10.7675666 C12.1007685,10.7205124 12.5556257,10.5636651 13.0026405,10.304867 C13.3320198,10.1088079 13.3477045,10.0852808 13.3006503,9.81864044 C13.2457538,9.45004931 12.9242168,8.81481778 12.6105222,8.44622664 L12.3517242,8.14821679 L11.9988178,8.30506408 C11.551803,8.50896556 11.3322168,8.50896556 11.1361577,8.31290644 C10.9557833,8.13253206 10.9244138,7.70904437 11.0891035,7.48945816 C11.2145813,7.30908378 11.6066996,7.30908378 12.0145025,7.49730053 C12.3125124,7.63062073 12.3203547,7.63062073 12.5164139,7.44240398 C12.7673695,7.20713304 13.1594877,6.40721185 13.2222267,5.98372417 C13.2692809,5.67002958 13.2614385,5.65434485 12.9399015,5.45044338 C12.5948375,5.23085717 11.4812217,4.95637441 11.2773203,5.04264042 C11.2145813,5.06616751 11.120473,5.2230148 11.0734188,5.38770446 C10.9087291,5.94451234 10.5009262,6.15625619 10.1558621,5.8660887 C9.77942862,5.53670939 9.74805916,4.78384239 10.1166503,4.72894584 C10.2264434,4.71326111 10.4303449,4.66620692 10.5793498,4.61915273 L10.8381478,4.53288672 L10.7832513,4.10155667 C10.7205124,3.61533007 10.5871922,3.2545813 10.2970247,2.80756652 C10.1088079,2.53308376 10.0695961,2.50955666 9.8500099,2.55661085 C9.45789167,2.64287686 8.87755669,2.96441381 8.50896556,3.30163548 L8.16390152,3.62317243 L8.31290644,3.90549756 C8.6109163,4.45446308 8.4775961,4.91716259 8.01489659,4.97205914 C7.47377343,5.03479805 7.25418723,4.52504436 7.56788181,3.92118228 C7.69335964,3.67022662 7.69335964,3.66238425 7.48945816,3.45064041 C7.25418723,3.19968474 6.46210841,2.82325125 6.01509362,2.7448276 C5.74845323,2.68993105 5.70139904,2.71345814 5.56023648,2.90951726 C5.27791136,3.30163548 5.08969461,3.92902465 5.08185224,4.4701478 C5.07400988,4.71326111 5.10537933,4.86226603 5.16027589,4.83089657 C5.28575372,4.75247293 5.88177343,5.08969461 5.9758818,5.29359608 C6.14841382,5.67002958 5.72492614,6.11704436 5.29359608,6.00725126 C5.13674879,5.96803944 5.03479805,5.8425616 4.88579313,5.52102466 C4.68973401,5.08969461 4.68973401,5.08969461 4.39172416,5.12890643 C3.89765519,5.19948771 3.66238425,5.27006899 3.29379312,5.45828574 C2.72130051,5.75629559 2.65071922,5.83471924 2.69777341,6.11704436 C2.75266996,6.46995077 3.08989164,7.13655176 3.39574386,7.48945816 L3.66238425,7.79531038 L3.99176357,7.63062073 C4.56425618,7.3482956 5.01911332,7.51298526 5.01911332,8.01489659 C5.01911332,8.50112319 4.52504436,8.68149758 3.97607884,8.39917245 L3.68591135,8.25016753 L3.44279805,8.53249265 C3.15263056,8.86187196 2.86246307,9.4735764 2.79188179,9.92843355 C2.73698523,10.2264434 2.75266996,10.2656552 2.97225617,10.4225025 C3.30947785,10.6656158 3.81138918,10.8224631 4.37603943,10.8773597 C4.81521185,10.9165715 4.86226603,10.9087291 4.86226603,10.7754089 C4.86226603,10.5479803 5.19948771,10.0225419 5.37986209,9.95196064 C5.5994483,9.87353699 5.88177343,10.0225419 6.03077835,10.2891823 C6.19546801,10.5715074 6.05430545,10.8616749 5.67002958,11.0263646 C5.13674879,11.2537932 5.13674879,11.2537932 5.16027589,11.5361183 C5.19948771,12.0145025 5.40338919,12.5791528 5.65434485,12.9634286 C5.88177343,13.3084927 5.92098525,13.3398621 6.14841382,13.2849656 C6.28173402,13.2614385 6.57190151,13.1516454 6.78364535,13.0496946 Z M13.3477045,13.1830148 C13.3869163,13.1751725 13.379074,10.9949951 13.3398621,10.5636651 C13.3320198,10.5244533 13.230069,10.5715074 13.1124336,10.6577735 C12.8222661,10.8616749 12.0301872,11.120473 11.6223843,11.1440001 C11.3871134,11.1596848 11.293005,11.1988966 11.2851626,11.2851626 C11.2537932,11.9360789 11.120473,12.5007291 10.8930444,12.9477439 L10.7518818,13.2379114 L12.0223449,13.2143843 C12.7203153,13.1986996 13.316335,13.1830148 13.3477045,13.1830148 Z M8.21879807,11.4890641 C8.18742861,11.3086897 7.93647294,11.2302661 7.88157639,11.3949557 C7.8580493,11.4498523 7.87373403,11.6066996 7.92078822,11.7321774 C8.00705423,11.9517636 8.01489659,11.9517636 8.12468969,11.8027587 C8.18742861,11.7164927 8.22664043,11.5753301 8.21879807,11.4890641 Z M5.4896552,10.7440395 C5.52886702,10.7440395 5.61513303,10.6891429 5.68571431,10.6185616 C5.77982269,10.5244533 5.78766505,10.4695567 5.71708377,10.3832907 C5.56807884,10.2029163 5.45044338,10.2578129 5.30143845,10.5558227 C5.18380298,10.8146207 5.18380298,10.8381478 5.29359608,10.7910936 C5.36417737,10.7675666 5.45044338,10.7440395 5.4896552,10.7440395 Z M10.7832513,10.5009262 C10.6342464,10.2264434 10.4460296,10.1244927 10.3440789,10.28134 C10.2499705,10.4381872 10.2970247,10.5322956 10.5166109,10.6420887 C10.8459902,10.8146207 10.9165715,10.7754089 10.7832513,10.5009262 Z M2.43897538,9.82648281 C2.45466011,9.31672911 3.02715272,7.99921186 3.22321184,7.99921186 C3.3643744,7.99921186 3.28595075,7.79531038 3.05067982,7.56788181 C2.82325125,7.3482956 2.27428573,6.32878821 2.27428573,6.13272909 C2.27428573,6.08567491 1.98411824,6.3523153 1.63121183,6.72090644 C1.27046306,7.09733994 0.846975374,7.54435472 0.682285718,7.71688674 L0.376433499,8.03058132 L1.34888671,8.9873498 C1.87432513,9.52063059 2.33702464,9.95196064 2.37623646,9.95196064 C2.40760592,9.959803 2.43113302,9.89706409 2.43897538,9.82648281 Z M15.4494582,7.82667984 C15.4494582,7.76394092 13.7398227,6.08567491 13.6457144,6.05430545 C13.6143449,6.03862072 13.5280789,6.2189951 13.4574976,6.45426604 C13.3320198,6.88559609 12.7516848,7.84236457 12.6183646,7.84236457 C12.5791528,7.84236457 12.6967882,8.03058132 12.8771626,8.25800989 C13.1908572,8.63444339 13.3633892,8.95598034 13.5594483,9.50494586 C13.637872,9.70884734 13.6457144,9.70100497 14.5397439,8.79129068 C15.0416552,8.28937935 15.4494582,7.85020693 15.4494582,7.82667984 Z M4.65052219,8.14037442 C4.74463056,7.86589166 4.4701478,7.75609856 4.13292613,7.93647294 C3.96039411,8.02273895 3.96039411,8.03058132 4.19566504,8.12468969 C4.4936749,8.25800989 4.603468,8.25800989 4.65052219,8.14037442 Z M11.959606,7.92863058 C11.9752907,7.88941876 11.87334,7.82667984 11.724335,7.78746802 C11.5125912,7.71688674 11.4341675,7.7247291 11.3635863,7.81099511 C11.206739,7.99921186 11.4106404,8.16390152 11.6929656,8.06195078 C11.8184434,8.02273895 11.9360789,7.96000004 11.959606,7.92863058 Z M5.55239412,5.63081776 C5.70139904,5.48181283 5.66218722,5.36417737 5.44260101,5.26222663 C5.17596062,5.14459116 5.12890643,5.19164535 5.25438426,5.4896552 C5.36417737,5.74845323 5.41123155,5.77198032 5.55239412,5.63081776 Z M10.6499311,5.37986209 C10.7832513,5.12106406 10.7440395,5.07400988 10.4695567,5.14459116 C10.218601,5.20733007 10.1401774,5.36417737 10.2734976,5.52886702 C10.4068178,5.69355668 10.5244533,5.64650249 10.6499311,5.37986209 Z M2.91735962,5.25438426 C3.2545813,5.04264042 4.10155667,4.78384239 4.43877835,4.78384239 C4.63483746,4.78384239 4.70541874,4.75247293 4.71326111,4.65052219 C4.7367882,3.97607884 4.92500495,3.30163548 5.23085717,2.73698523 C5.25438426,2.69777341 4.53288672,2.70561578 2.8546207,2.73698523 L2.6115074,2.7448276 L2.61934977,4.07802958 C2.61934977,4.80736948 2.6350345,5.41123155 2.64287686,5.41123155 C2.65856159,5.41123155 2.77619706,5.34065027 2.91735962,5.25438426 Z M13.3006503,5.18380298 C13.2771232,5.15243352 13.2535961,4.54857145 13.2457538,3.850601 L13.2379114,2.58013794 L11.9125518,2.58798031 C11.1832119,2.59582267 10.5871922,2.61934977 10.5871922,2.64287686 C10.5871922,2.65856159 10.6734582,2.82325125 10.7754089,3.00362563 C10.9793104,3.35653204 11.1361577,3.8741281 11.1753695,4.31330051 C11.1910542,4.46230544 11.206739,4.61131037 11.206739,4.65052219 C11.2145813,4.68189165 11.3635863,4.70541874 11.5439606,4.70541874 C11.9439212,4.70541874 12.7360001,4.91716259 13.057537,5.1132217 C13.3241774,5.27006899 13.3555469,5.28575372 13.3006503,5.18380298 Z M8.12468969,4.52504436 C8.14821679,4.46230544 8.12468969,4.32114288 8.07763551,4.19566504 C7.97568477,3.93686701 7.86589166,4.0074483 7.79531038,4.37603943 C7.74825619,4.59562564 7.76394092,4.6269951 7.91294585,4.6269951 C8.00705423,4.6269951 8.1011626,4.57994091 8.12468969,4.52504436 Z M8.87755669,2.65856159 C9.06577344,2.56445321 9.34809857,2.44681775 9.51278822,2.39192119 L9.81079808,2.30565518 L8.81481778,1.33320198 L7.81883748,0.368591135 L6.88559609,1.33320198 C6.3758424,1.8586404 5.96803944,2.30565518 5.9758818,2.31349755 C5.99156653,2.32133991 6.19546801,2.39192119 6.43073895,2.46250247 C6.90912319,2.61934977 7.3718227,2.87030543 7.71688674,3.17615765 L7.94431531,3.37221676 L8.24232516,3.097734 C8.40701482,2.94872908 8.68933994,2.75266996 8.87755669,2.65856159 Z" id="Shape"></path>
                <path d="M8.43838428,10.2029163 C8.31290644,10.0617537 8.30506408,10.0382266 8.43054191,9.8500099 C8.55601975,9.65395079 8.57170447,9.65395079 8.75207886,9.78727098 C8.97166507,9.95196064 8.9873498,10.0539114 8.79913305,10.218601 C8.61875866,10.3832907 8.60307393,10.3832907 8.43838428,10.2029163 Z" id="Shape"></path>
                <path d="M7.68551728,9.77942862 C7.68551728,9.55984241 7.93647294,9.11282763 8.10900496,9.02656162 C8.43838428,8.8540296 9.01087689,8.89324142 9.28535965,9.10498527 C9.48926113,9.26183256 9.48926113,9.26967492 9.35594093,9.49710349 C9.19909364,9.76374389 9.19125128,9.76374389 8.89324142,9.6068966 C8.52465029,9.41867985 8.1011626,9.45789167 7.88157639,9.69316261 C7.73257147,9.8500099 7.68551728,9.87353699 7.68551728,9.77942862 Z" id="Shape"></path>
                <path d="M6.7287488,9.12851236 C6.56405914,9.05793108 6.43073895,8.97166507 6.43073895,8.93245324 C6.43073895,8.82266014 6.61111333,8.46975374 6.66600988,8.46975374 C6.71306407,8.46975374 7.2385025,8.67365521 7.30908378,8.7207094 C7.32476851,8.72855177 7.41103452,8.68933994 7.51298526,8.63444339 C7.88941876,8.43838428 7.63846309,8.03842368 7.17576358,8.09332024 C6.96401974,8.11684733 6.90912319,8.1011626 6.94049264,8.01489659 C6.96401974,7.95215767 7.00323156,7.82667984 7.02675865,7.7247291 C7.06597048,7.56788181 7.1051823,7.54435472 7.33261087,7.58356654 C7.53651235,7.614936 7.60709363,7.5914089 7.70904437,7.45024634 C7.98352713,7.05812811 7.45808871,6.61111333 6.91696555,6.76011826 C6.54053205,6.862069 6.12488673,7.37966506 6.11704436,7.74825619 C6.11704436,7.84236457 6.08567491,7.92078822 6.04646308,7.92078822 C5.91314289,7.92078822 6.04646308,7.17576358 6.23467983,6.84638427 C6.50916259,6.38368476 6.89343846,6.16409855 7.3482956,6.2189951 C7.75609856,6.26604929 8.08547787,6.53268969 8.1011626,6.8385419 C8.11684733,7.02675865 8.11684733,7.02675865 8.35996063,6.76796062 C8.56386211,6.55621678 8.66581285,6.50916259 8.94029561,6.50916259 C9.22262073,6.50916259 9.31672911,6.55621678 9.57552714,6.81501481 C9.88137936,7.12086703 9.92843355,7.28555669 9.88137936,7.84236457 C9.84216753,8.33643354 9.41867985,8.76776359 8.97166507,8.76776359 C8.68149758,8.76776359 8.50896556,8.63444339 8.22664043,8.18742861 C8.06979314,7.92078822 7.85020693,7.81883748 7.67767491,7.92863058 C7.59925127,7.97568477 7.62277836,8.02273895 7.76394092,8.14037442 C7.98352713,8.32074881 8.03058132,8.86971433 7.83452221,9.05793108 C7.65414782,9.23830546 7.06597048,9.27751729 6.7287488,9.12851236 Z M9.45789167,8.25016753 C9.55984241,8.03058132 9.55984241,7.81883748 9.4735764,7.54435472 C9.32457147,7.06597048 8.62660103,6.93265028 8.3442759,7.32476851 C8.25800989,7.43456161 8.20311334,7.45808871 8.17958625,7.38750742 C8.13253206,7.26202959 7.99921186,7.3482956 7.99921186,7.50514289 C7.99921186,7.57572417 8.02273895,7.614936 8.04626605,7.58356654 C8.14821679,7.4816158 8.55601975,7.71688674 8.71286704,7.9678424 C9.00303453,8.43838428 9.31672911,8.55601975 9.45789167,8.25016753 Z" id="Shape"></path>
            </g>
        </g>
    </g>
</svg>